<svg id="svg" version="1.1" xmlns="http://www.w3.org/2000/svg" xmlns:xlink="http://www.w3.org/1999/xlink" width="400" height="400" viewBox="0, 0, 400,400"><g id="svgg"><path id="path0" d="M158.314 53.003 C 152.398 54.293,152.586 54.197,151.644 56.387 C 150.832 58.274,150.800 58.962,150.796 74.474 C 150.791 93.517,150.680 94.214,147.133 97.604 C 144.057 100.544,146.502 100.400,99.536 100.400 L 57.502 100.400 54.908 103.100 C 53.482 104.585,51.524 106.903,50.557 108.251 L 48.800 110.702 48.800 199.789 C 48.800 298.126,48.570 289.143,51.278 296.672 C 53.031 301.545,52.042 301.329,73.810 301.589 L 91.420 301.800 94.108 303.124 C 99.840 305.947,100.000 306.581,100.000 326.415 L 100.000 342.329 102.700 344.814 C 104.185 346.181,106.568 348.087,107.996 349.050 L 110.591 350.800 126.396 350.790 L 142.200 350.780 144.048 348.290 C 145.064 346.921,146.369 344.974,146.948 343.965 L 148.000 342.130 148.000 299.943 L 148.000 257.757 146.700 256.548 C 145.985 255.883,144.654 254.768,143.742 254.070 L 142.085 252.800 125.784 252.800 L 109.484 252.800 106.600 251.413 C 102.866 249.617,101.004 247.602,100.635 244.959 C 100.485 243.882,100.096 241.380,99.772 239.400 C 98.714 232.940,99.137 163.411,100.265 158.567 C 101.604 152.812,102.871 151.218,107.911 148.950 L 110.023 148.000 152.539 148.000 L 195.056 148.000 196.705 149.412 C 201.721 153.705,202.400 157.113,202.400 177.983 L 202.400 194.638 203.917 196.119 L 205.434 197.600 223.217 197.614 C 236.749 197.625,241.761 197.763,244.182 198.195 C 249.282 199.104,249.200 199.438,249.200 177.806 C 249.200 156.978,249.663 154.535,254.426 150.252 C 257.138 147.814,255.871 147.952,274.400 148.084 L 290.600 148.200 292.800 149.340 C 299.643 152.888,300.396 155.951,300.398 180.251 C 300.400 194.653,300.468 196.358,301.057 196.848 C 301.588 197.288,305.588 197.422,321.788 197.541 L 341.862 197.688 344.931 196.270 L 348.000 194.852 348.000 126.267 L 348.000 57.683 345.159 54.841 L 342.317 52.000 252.459 52.034 L 162.600 52.069 158.314 53.003 M256.124 202.797 C 254.253 203.191,252.581 204.152,252.246 205.025 C 252.124 205.342,252.003 226.886,251.977 252.901 L 251.929 300.200 253.065 300.800 C 254.010 301.299,257.319 301.434,272.800 301.602 C 295.518 301.848,296.456 302.084,299.251 308.249 L 300.400 310.782 300.400 326.503 L 300.400 342.223 302.900 344.666 C 304.275 346.010,306.545 347.939,307.944 348.954 L 310.488 350.800 326.344 350.790 L 342.200 350.780 344.048 348.290 C 345.064 346.921,346.369 344.974,346.948 343.965 L 348.000 342.130 348.000 299.943 L 348.000 257.757 346.700 256.548 C 345.985 255.883,344.661 254.774,343.759 254.083 L 342.117 252.826 325.559 252.713 L 309.000 252.600 306.799 251.519 C 300.264 248.309,299.608 245.398,299.603 219.549 C 299.600 205.325,299.532 203.642,298.942 203.152 C 298.164 202.506,259.042 202.182,256.124 202.797 M222.825 304.794 L 205.051 305.000 203.825 307.400 L 202.600 309.800 202.487 325.692 C 202.366 342.645,202.414 343.199,204.458 348.663 L 205.270 350.833 221.735 350.704 L 238.200 350.575 242.800 348.974 L 247.400 347.373 248.200 345.186 C 249.340 342.070,249.444 308.379,248.320 305.900 L 247.641 304.400 244.120 304.494 C 242.184 304.545,232.601 304.680,222.825 304.794 " stroke="none" fill="#f0f0f0" fill-rule="evenodd"></path><path id="path1" d="M0.000 200.000 L 0.000 400.000 200.000 400.000 L 400.000 400.000 400.000 200.000 L 400.000 0.000 200.000 0.000 L 0.000 0.000 0.000 200.000 M345.159 54.841 L 348.000 57.683 348.000 126.267 L 348.000 194.852 344.931 196.270 L 341.862 197.688 321.788 197.541 C 305.588 197.422,301.588 197.288,301.057 196.848 C 300.468 196.358,300.400 194.653,300.398 180.251 C 300.396 155.951,299.643 152.888,292.800 149.340 L 290.600 148.200 274.400 148.084 C 255.871 147.952,257.138 147.814,254.426 150.252 C 249.663 154.535,249.200 156.978,249.200 177.806 C 249.200 199.438,249.282 199.104,244.182 198.195 C 241.761 197.763,236.749 197.625,223.217 197.614 L 205.434 197.600 203.917 196.119 L 202.400 194.638 202.400 177.983 C 202.400 157.113,201.721 153.705,196.705 149.412 L 195.056 148.000 152.539 148.000 L 110.023 148.000 107.911 148.950 C 102.871 151.218,101.604 152.812,100.265 158.567 C 99.137 163.411,98.714 232.940,99.772 239.400 C 100.096 241.380,100.485 243.882,100.635 244.959 C 101.004 247.602,102.866 249.617,106.600 251.413 L 109.484 252.800 125.784 252.800 L 142.085 252.800 143.742 254.070 C 144.654 254.768,145.985 255.883,146.700 256.548 L 148.000 257.757 148.000 299.943 L 148.000 342.130 146.948 343.965 C 146.369 344.974,145.064 346.921,144.048 348.290 L 142.200 350.780 126.396 350.790 L 110.591 350.800 107.996 349.050 C 106.568 348.087,104.185 346.181,102.700 344.814 L 100.000 342.329 100.000 326.415 C 100.000 306.581,99.840 305.947,94.108 303.124 L 91.420 301.800 73.810 301.589 C 52.042 301.329,53.031 301.545,51.278 296.672 C 48.570 289.143,48.800 298.126,48.800 199.789 L 48.800 110.702 50.557 108.251 C 51.524 106.903,53.482 104.585,54.908 103.100 L 57.502 100.400 99.536 100.400 C 146.502 100.400,144.057 100.544,147.133 97.604 C 150.680 94.214,150.791 93.517,150.796 74.474 C 150.800 58.962,150.832 58.274,151.644 56.387 C 152.586 54.197,152.398 54.293,158.314 53.003 L 162.600 52.069 252.459 52.034 L 342.317 52.000 345.159 54.841 M298.942 203.152 C 299.532 203.642,299.600 205.325,299.603 219.549 C 299.608 245.398,300.264 248.309,306.799 251.519 L 309.000 252.600 325.559 252.713 L 342.117 252.826 343.759 254.083 C 344.661 254.774,345.985 255.883,346.700 256.548 L 348.000 257.757 348.000 299.943 L 348.000 342.130 346.948 343.965 C 346.369 344.974,345.064 346.921,344.048 348.290 L 342.200 350.780 326.344 350.790 L 310.488 350.800 307.944 348.954 C 306.545 347.939,304.275 346.010,302.900 344.666 L 300.400 342.223 300.400 326.503 L 300.400 310.782 299.251 308.249 C 296.456 302.084,295.518 301.848,272.800 301.602 C 257.319 301.434,254.010 301.299,253.065 300.800 L 251.929 300.200 251.977 252.901 C 252.003 226.886,252.124 205.342,252.246 205.025 C 252.581 204.152,254.253 203.191,256.124 202.797 C 259.042 202.182,298.164 202.506,298.942 203.152 M248.320 305.900 C 249.444 308.379,249.340 342.070,248.200 345.186 L 247.400 347.373 242.800 348.974 L 238.200 350.575 221.735 350.704 L 205.270 350.833 204.458 348.663 C 202.414 343.199,202.366 342.645,202.487 325.692 L 202.600 309.800 203.825 307.400 L 205.051 305.000 222.825 304.794 C 232.601 304.680,242.184 304.545,244.120 304.494 L 247.641 304.400 248.320 305.900 " stroke="none" fill="#000000" fill-rule="evenodd"></path></g></svg>